<?xml version="1.0" encoding="utf-8"?>
<!-- Generator: Adobe Illustrator 19.0.0, SVG Export Plug-In . SVG Version: 6.00 Build 0)  -->
<svg version="1.1" id="Capa_1" xmlns="http://www.w3.org/2000/svg" xmlns:xlink="http://www.w3.org/1999/xlink" x="0px" y="0px"
	 viewBox="0 0 595.3 841.9" style="enable-background:new 0 0 595.3 841.9;" xml:space="preserve">
<style type="text/css">
	.st0{fill:#FAFAFA;}
	.st1{font-family:'OpenSans';}
	.st2{font-size:234.5071px;}
</style>
<path id="XMLID_12_" class="st0" d="M-17.9,252.4v284.8h314V252.4H-17.9z M91,471.5c0,6.1-5,11.1-11.1,11.1H52.2
	c-6.1,0-11.1-5-11.1-11.1v-17H91V471.5z M40,451.3v-7.5h194.5v7.5H40z M235,471.5c0,6.1-5,11.1-11.1,11.1h-27.7
	c-6.1,0-11.1-5-11.1-11.1v-17H235V471.5z M236.2,376.1c-7.1,0-13.4-1.4-17-3.5l0.9,3.5l-0.1,0c0.1,0.2,13.5,19.7,18,34.8
	c1.4,4.4,1.6,7,1.5,8.3c0,0.3,0,0.6,0,0.9l-4.9,20.5H40L36.6,420c0-0.3,0-0.6,0-0.9c-0.1-1.3,0.1-3.9,1.5-8.3
	c4.6-15.2,18-34.8,18-34.8l0.9-3.5c-3.6,2.1-9.9,3.5-17.1,3.5c-11.3,0-20.4-3.4-20.4-7.7c0-4.2,9.1-7.7,20.4-7.7
	c8.5,0,15.8,2,18.9,4.8l11-42.9c0,0-4.1-6.8,45.9-7.8l2.7-11.6h2.4l0.6-2.8h33.2l0.6,2.8h2.4l2.7,11.6c50,1,46,7.8,46,7.8l11,42.9
	c3-2.8,10.3-4.8,18.9-4.8c11.3,0,20.4,3.4,20.4,7.7C256.6,372.6,247.5,376.1,236.2,376.1z"/>
<path id="XMLID_17_" class="st0" d="M53.6,405c-18.4,23.8,31.4,36.1,28.9,21.8C80,412.6,53.6,405,53.6,405z"/>
<path id="XMLID_18_" class="st0" d="M175.4,372.4h34.7L198,328.5c0,0,4.2-6.5-52.1-6.5H138h-0.1h-7.6c-56.3,0-52.1,6.5-52.1,6.5
	l-12.1,43.8h17.1c23.5-2,83.3-6.8,84.9-5.5c1.1,0.9-27.2,3.4-52.7,5.5H145c24.3-1.9,50-3.6,51.1-2.7
	C196.7,370.2,187.9,371.2,175.4,372.4z"/>
<path id="XMLID_19_" class="st0" d="M195.5,426.9c-2.5,14.2,47.3,2,28.9-21.8C224.4,405,198.1,412.6,195.5,426.9z"/>
<text id="XMLID_1_" transform="matrix(1 0 0 1 380.5176 498.6123)" class="st0 st1 st2">Taxistema</text>
</svg>
